<?xml version="1.0" encoding="utf-8"?>
<!-- Generator: Adobe Illustrator 23.0.3, SVG Export Plug-In . SVG Version: 6.00 Build 0)  -->
<svg version="1.1" id="Layer_1" xmlns="http://www.w3.org/2000/svg" xmlns:xlink="http://www.w3.org/1999/xlink" x="0px" y="0px"
	 viewBox="0 0 140 140" style="enable-background:new 0 0 140 140;" xml:space="preserve">
<title>MOS-Icons-heightPlant</title>
<polygon points="98,25.9 101.7,25.9 101.7,116 98,116 98,118 107.3,118 107.3,116 103.7,116 103.7,25.9 107.3,25.9 107.3,23.9 
	98,23.9 "/>
<path d="M107.9,118.6H97.4v-3.2h3.6v-89h-3.6v-3.2h10.5v3.2h-3.7v89h3.7L107.9,118.6z M98.6,117.4h8.1v-0.8h-3.7V25.3h3.7v-0.8h-8.1
	v0.8h3.7v91.4h-3.7V117.4z"/>
<g id="Group_2905">
	<g id="Path_832">
		<path d="M57.4,80.5c-0.1-6.7,0-13.4,0.4-20c-2.8-0.2-5.6-0.5-8.4-1.1c-1.3,2.1-2.9,4-4.6,5.8l-2.3-2.2c1.3-1.4,2.5-2.8,3.6-4.4
			c-4.3-1.3-8-3.2-10.2-5.6c-4.9-5.3-5.3-13.3-0.9-19l0.1-0.1c2.2-2.5,5.6-3.7,8.9-3.2c3.8,0.8,7,3.4,8.6,7
			c2.7,6.2,1.1,13.5-1.6,18.8c2.3,0.4,4.6,0.7,7,0.9c0-0.2,0-0.3,0-0.5c0.3-7.1,1.8-14,4.4-20.6c3.7-8.2,9.7-13,16-13
			c8.5,0,14.5,6.3,14.5,15.2c0,8.7-5.2,15.5-14.5,19.1c-5.5,2-11.4,3.1-17.3,3H61c-0.4,6.6-0.6,13.3-0.4,19.9L57.4,80.5z M78.5,26.5
			c-7.5,0-11.9,8.5-13.1,11.1c-2.5,6.2-3.8,12.8-4.1,19.5v0.3c5.5,0.1,10.9-0.9,16-2.8c5.7-2.2,12.5-6.8,12.5-16.2
			C89.8,31.3,85.3,26.5,78.5,26.5z M37.5,36c-3.3,4.5-3,10.7,0.8,14.8c1.9,2.1,5.3,3.8,9.6,5c2.5-4.7,4.2-11.4,1.8-16.8
			c-1.1-2.6-3.4-4.5-6.2-5.1C41.3,33.5,39,34.3,37.5,36L37.5,36z"/>
	</g>
	<g id="Path_833">
		<polygon points="77.4,118.7 40.3,118.7 35.7,75.9 38.9,75.6 43.2,115.5 74.6,115.5 79.4,75.6 82.6,75.9 		"/>
	</g>
	<g id="Path_834">
		<path d="M73.7,82.1c-1.9,0-3.7-1-4.8-2.5c-0.9-1-1.4-1.4-2.5-1.4s-1.6,0.5-2.5,1.4c-2,2.7-5.7,3.2-8.4,1.2
			c-0.5-0.3-0.9-0.8-1.2-1.2c-0.9-1-1.4-1.4-2.5-1.4c-1.1,0-1.6,0.5-2.5,1.4c-1.1,1.5-2.9,2.4-4.8,2.5c-2.6,0-3.9-1.6-4.9-2.8
			c-1-1.2-1.4-1.6-2.4-1.6c-0.9,0-1.6-0.7-1.6-1.6c0-0.9,0.7-1.6,1.6-1.6c2.6,0,3.9,1.6,4.9,2.8c1,1.2,1.4,1.6,2.4,1.6
			s1.6-0.5,2.5-1.4c1.1-1.5,2.9-2.4,4.8-2.5c1.9,0,3.7,0.9,4.8,2.4c0.9,1,1.4,1.4,2.5,1.4s1.6-0.5,2.5-1.4c2-2.7,5.7-3.2,8.4-1.2
			c0.5,0.3,0.9,0.8,1.2,1.2c0.9,1,1.4,1.4,2.5,1.4c1.1,0,1.5-0.5,2.4-1.6s2.3-2.8,4.9-2.8c0.9,0,1.6,0.7,1.6,1.6
			c0,0.9-0.7,1.6-1.6,1.6c-1,0-1.5,0.5-2.4,1.6S76.3,82.1,73.7,82.1z"/>
	</g>
</g>
</svg>
