<?xml version="1.0" encoding="utf-8"?>
<!-- Generator: Adobe Illustrator 23.0.3, SVG Export Plug-In . SVG Version: 6.00 Build 0)  -->
<svg version="1.1" id="Layer_1" xmlns="http://www.w3.org/2000/svg" xmlns:xlink="http://www.w3.org/1999/xlink" x="0px" y="0px"
	 viewBox="0 0 140 140" style="enable-background:new 0 0 140 140;" xml:space="preserve">
<title>MOS-Icons-sunCloud</title>
<path d="M120.7,81.5h-0.2v-0.2c0-9.8-7.9-17.7-17.7-17.7c-3.6,0-7,1.1-10,3.1c-3.5-7.6-11.1-12.5-19.4-12.5c-1.6,0-3.2,0.2-4.8,0.5
	c-1.1-2.2-2.5-4.3-4.1-6.1l9.8-9.8l-1-1.1l-1.1-1.1l-9.8,9.8c-4.6-4.2-10.6-6.7-16.8-7V25.8h-3v13.8c-6.2,0.3-12.2,2.8-16.8,7
	L16,36.8L15,37.8l-1.1,1.1l9.7,9.7c-4.2,4.6-6.7,10.6-7,16.8H2.9v3h13.8c0.3,6.2,2.8,12.2,7,16.8L13.9,95l1.1,1.1l1.1,1.1l9.8-9.7
	c1.5,1.4,3.2,2.5,4.9,3.5c-0.1,0.5-0.1,1.1-0.1,1.6c0,12.1,9.7,21.8,21.8,21.8c0,0,0,0,0,0h68.3c9.1,0,16.4-7.4,16.4-16.4
	S129.8,81.6,120.7,81.5L120.7,81.5L120.7,81.5z M120.7,111.4H52.4c-10.4,0-18.8-8.4-18.8-18.8c0-0.1,0-0.2,0-0.3
	c0-0.5,0-1.1,0.1-1.6c0.1-0.5,0.1-1,0.2-1.6c1.6-8.9,9.4-15.4,18.5-15.4l0,0c0.2,2,1.2,4,2.6,5.4l0,0c0.9,0.8,2.1,1.2,3.3,1.2
	c0.9,0,1.7-0.3,2.4-0.8c0.7-0.6,1.1-1.5,1.2-2.4c0-1.5-0.5-2.9-1.6-4c-1.3-1.2-3-2-4.8-2.2c1.5-5.8,5.7-10.6,11.3-12.7
	c0.5-0.2,1-0.3,1.4-0.5s1-0.2,1.5-0.3c8.5-1.7,16.9,2.7,20.4,10.6c-1.7,1.1-3,2.9-3.6,4.9l0,0c-0.4,1.9,0.2,4.3,2.3,5.2
	c0.4,0.2,0.8,0.2,1.2,0.2c0.5,0,1-0.1,1.4-0.3c1.3-0.7,2.3-1.8,2.8-3.2c0.5-1.8,0.3-3.7-0.4-5.4c6.5-4.8,15.7-3.5,20.5,3.1
	c1.9,2.5,2.9,5.6,2.9,8.8c0,0.1,0,0.2,0,0.4c-2.1,0.2-4,1.1-5.4,2.6c-1.2,1.5-1.8,3.9-0.4,5.7c0.6,0.7,1.5,1.1,2.4,1.2h0.2
	c1.4,0,2.7-0.6,3.7-1.6c1.3-1.4,2-3.2,2.2-5h0.4c7.4,0,13.4,6,13.4,13.4C134.1,105.4,128.1,111.4,120.7,111.4
	C120.7,111.4,120.7,111.4,120.7,111.4L120.7,111.4z M19.6,66.9c0-13.5,10.9-24.4,24.4-24.5c9.1,0,17.5,5,21.7,13.1
	c-6.6,2.5-11.6,8.2-13.1,15.2c-10.2-0.1-19.1,7-21.4,16.9C24,83.3,19.6,75.4,19.6,66.9z M55.6,74.1c1,0.2,1.9,0.6,2.7,1.2
	c0.4,0.5,0.7,1.1,0.7,1.7c0,0.2-0.1,0.2-0.1,0.2c-0.6,0.3-1.4,0.2-1.8-0.3C56.3,76.1,55.8,75.1,55.6,74.1z M91.6,74
	c-0.2,0.6-0.6,1.1-1.2,1.4c-0.1,0-0.2,0.1-0.2,0.1c-0.5-0.4-0.8-1.1-0.6-1.8l0,0c0.3-1,0.9-1.9,1.7-2.5l0.1-0.1
	c0,0.2,0.1,0.4,0.1,0.6C91.8,72.4,91.8,73.2,91.6,74z M117.2,84.8v0.1c-0.2,0.9-0.6,1.8-1.2,2.5c-0.5,0.4-1.1,0.7-1.7,0.7
	c-0.2,0-0.2-0.1-0.2-0.1c-0.3-0.6-0.2-1.4,0.3-1.8C115.1,85.5,116.1,85,117.2,84.8L117.2,84.8z"/>
</svg>
