<?xml version="1.0" encoding="utf-8"?>
<!-- Generator: Adobe Illustrator 23.0.3, SVG Export Plug-In . SVG Version: 6.00 Build 0)  -->
<svg version="1.1" id="Layer_1" xmlns="http://www.w3.org/2000/svg" xmlns:xlink="http://www.w3.org/1999/xlink" x="0px" y="0px"
	 viewBox="0 0 140 140" style="enable-background:new 0 0 140 140;" xml:space="preserve">
<style type="text/css">
	.st0{fill:#1A171B;}
</style>
<title>MOS-Icons-Cloud</title>
<path class="st0" d="M112.4,105.1H33.8C20,104.8,9.1,93.5,9.4,79.7c0.3-13.4,11-24.1,24.4-24.4h0.4c2.9-13.1,15.9-21.4,29-18.5
	c7.6,1.7,13.9,6.8,17,13.9c9.1-6.4,21.7-4.2,28.1,4.9c2.4,3.4,3.6,7.4,3.6,11.6c0,0.2,0,0.3,0,0.5h0.5c10.3,0,18.7,8.4,18.7,18.7
	C131.1,96.7,122.7,105.1,112.4,105.1C112.4,105.1,112.4,105.1,112.4,105.1L112.4,105.1z M33.8,58.3c-12.1,0.3-21.7,10.3-21.4,22.3
	c0.3,11.7,9.7,21.2,21.4,21.4h78.7c8.7,0,15.7-7,15.7-15.7c0-8.7-7-15.7-15.7-15.7c0,0,0,0,0,0c-0.7,0-1.3,0-2,0.1l-1.9,0.2l0.2-1.9
	c0.1-0.7,0.1-1.3,0.1-2c-0.1-9.5-7.8-17.1-17.3-17c-4.1,0-8,1.5-11.1,4.2l-1.7,1.5l-0.7-2.1c-3.8-11.1-16-17.1-27.1-13.2
	c-7.4,2.6-12.9,9-14.1,16.8l-0.2,1.3L35,58.4C34.6,58.4,34.2,58.3,33.8,58.3z"/>
<path class="st0" d="M40.6,66c-1.3,0-2.6-0.5-3.6-1.3l0,0C34,62,33.9,57.2,33.9,57v-1.5h1.5c0.5,0,4.9,0.1,7.4,2.6
	c1.2,1.2,1.8,2.8,1.8,4.4c0,1-0.5,2-1.3,2.6C42.5,65.7,41.6,66,40.6,66z M39,62.3c0.6,0.6,1.6,0.8,2.4,0.4c0.1-0.1,0.2-0.3,0.2-0.5
	c0-0.8-0.3-1.6-0.9-2.1c-1-0.8-2.2-1.4-3.6-1.5C37.3,60,37.9,61.3,39,62.3z"/>
<path class="st0" d="M105.1,78.4h-0.3c-1,0-2-0.5-2.6-1.3c-1.6-1.9-0.9-4.7,0.4-6.2l0,0c2.6-3.1,7.4-3.1,7.7-3.1h1.5v1.5
	c0,0.5-0.1,4.9-2.6,7.4C108.1,77.8,106.6,78.4,105.1,78.4z M104.9,72.8c-0.6,0.6-0.8,1.6-0.4,2.4c0.1,0.1,0.3,0.2,0.5,0.2
	c0.8,0,1.6-0.3,2.1-0.9c0.8-1,1.4-2.2,1.5-3.5C107.2,71.1,105.9,71.8,104.9,72.8z"/>
<path class="st0" d="M77.2,64.4c-0.5,0-0.9-0.1-1.3-0.3c-2.2-1-3-3.7-2.5-5.8l0,0c0.9-3.9,5.2-6.2,5.4-6.3l1.3-0.7l0.7,1.3
	c0.2,0.4,2.2,4.4,1.1,7.7c-0.5,1.6-1.6,2.9-3.1,3.6C78.3,64.2,77.7,64.4,77.2,64.4z M78.7,55.6c-1.2,0.8-2,2-2.4,3.4l0,0
	c-0.2,0.9,0.1,2,0.8,2.3c0.2,0,0.3,0,0.5,0c0.7-0.4,1.2-1,1.5-1.8C79.3,58.2,79.2,56.9,78.7,55.6z"/>
</svg>
