<?xml version="1.0" encoding="utf-8"?>
<!-- Generator: Adobe Illustrator 23.0.3, SVG Export Plug-In . SVG Version: 6.00 Build 0)  -->
<svg version="1.1" id="Layer_1" xmlns="http://www.w3.org/2000/svg" xmlns:xlink="http://www.w3.org/1999/xlink" x="0px" y="0px"
	 viewBox="0 0 140 140" style="enable-background:new 0 0 140 140;" xml:space="preserve">
<title>MOS-Icons-sun</title>
<path d="M93.4,48l12.3-12.3l-1.4-1.4L92,46.6c-5.7-5.4-13.2-8.5-21-8.7V20.6h-2v17.3c-7.8,0.2-15.3,3.3-21,8.7L35.8,34.4l-1.4,1.4
	L46.6,48c-5.4,5.7-8.5,13.2-8.7,21H20.6v2h17.3c0.2,7.8,3.3,15.3,8.7,21l-12.3,12.2l1.4,1.4L48,93.4c5.7,5.4,13.2,8.5,21,8.7v17.3h2
	v-17.3c7.8-0.2,15.3-3.3,21-8.7l12.2,12.3l1.4-1.4L93.4,92c5.4-5.7,8.5-13.2,8.7-21h17.3v-2h-17.3C101.8,61.2,98.8,53.7,93.4,48z
	 M70,100.1c-16.6,0-30.1-13.5-30.1-30.1S53.4,39.9,70,39.9s30.1,13.5,30.1,30.1C100.1,86.6,86.6,100.1,70,100.1z"/>
<path d="M71.8,120.2h-3.5v-17.3c-7.5-0.4-14.6-3.4-20.2-8.4l-12.3,12.3l-2.5-2.5L45.6,92c-5-5.6-8-12.7-8.4-20.2H19.8v-3.5h17.4
	c0.4-7.5,3.4-14.6,8.4-20.2L33.3,35.8l2.5-2.5l12.3,12.3c5.6-5,12.7-8,20.2-8.4V19.8h3.5v17.4c7.5,0.4,14.6,3.4,20.2,8.4l12.3-12.3
	l2.5,2.5L94.4,48c5,5.6,8,12.7,8.4,20.2h17.4v3.5h-17.4c-0.4,7.5-3.4,14.6-8.4,20.2l12.3,12.3l-2.5,2.5L92,94.4
	c-5.6,5-12.7,8-20.2,8.4V120.2z M69.8,118.7h0.5v-17.3H71c7.6-0.2,14.9-3.3,20.5-8.5l0.5-0.5l12.3,12.2l0.3-0.3L92.3,92l0.5-0.5
	c5.2-5.6,8.3-12.8,8.5-20.5v-0.7h17.3v-0.5h-17.3V69c-0.2-7.6-3.3-14.9-8.5-20.5L92.3,48l12.2-12.2l-0.3-0.3L92,47.7l-0.5-0.5
	c-5.6-5.2-12.8-8.3-20.5-8.5h-0.7V21.3h-0.5v17.3H69c-7.6,0.2-14.9,3.3-20.5,8.5L48,47.6L35.8,35.4l-0.3,0.3L47.7,48l-0.5,0.5
	c-5.2,5.6-8.3,12.8-8.5,20.5v0.7H21.3v0.5h17.3V71c0.2,7.6,3.3,14.9,8.5,20.5l0.5,0.5l-12.2,12.2l0.3,0.3L48,92.3l0.5,0.5
	c5.6,5.2,12.8,8.3,20.5,8.5h0.7V118.7z M70,100.8C53,100.9,39.1,87,39.1,70c0-17,13.8-30.9,30.8-30.9c17,0,30.9,13.8,30.9,30.8
	c0,0,0,0.1,0,0.1C100.8,87,87,100.8,70,100.8z M70,40.6c-16.2,0-29.4,13.1-29.4,29.4S53.8,99.3,70,99.3c16.2,0,29.3-13.1,29.4-29.3
	C99.3,53.8,86.2,40.7,70,40.6L70,40.6z"/>
</svg>
