<?xml version="1.0" encoding="utf-8"?>
<!-- Generator: Adobe Illustrator 23.0.3, SVG Export Plug-In . SVG Version: 6.00 Build 0)  -->
<svg version="1.1" id="Layer_1" xmlns="http://www.w3.org/2000/svg" xmlns:xlink="http://www.w3.org/1999/xlink" x="0px" y="0px"
	 viewBox="0 0 140 140" style="enable-background:new 0 0 140 140;" xml:space="preserve">
<title>MOS-Icons-Artboard 74</title>
<path d="M102.5,42.5c-4.1-0.7-8.4,0.4-11.8,2.8c-0.3,0.2-7.7,5.3-7.7,14.4v46.4c0,0.6,0.5,1.2,1.2,1.2s1.2-0.5,1.2-1.2c0,0,0,0,0,0
	V59.7c0-7.8,6.6-12.4,6.7-12.5c6-4.4,14.5-3.1,18.9,2.9c3.5,4.7,2.4,11.4-2.3,14.8c-3.7,2.7-8.8,1.9-11.5-1.8
	c-2-2.8-1.4-6.8,1.4-8.9c0.5-0.4,0.6-1.1,0.2-1.6c-0.4-0.5-1.1-0.6-1.6-0.2c-3.9,2.8-4.7,8.3-1.9,12.1c0,0,0,0,0,0
	c3.5,4.7,10.1,5.7,14.8,2.2c5.7-4.2,7-12.3,2.8-18C110.4,45.4,106.7,43.1,102.5,42.5z"/>
<path d="M84.3,108c-1.1,0-1.9-0.9-1.9-1.9V59.7c0-9.5,7.7-14.8,8-15c3.5-2.6,8-3.7,12.3-3l0,0c4.4,0.7,8.3,3.1,10.9,6.6
	c4.4,6.1,3.1,14.7-3,19.1c-5,3.7-12.1,2.6-15.8-2.4c0,0,0,0,0,0c-3.1-4.2-2.2-10.1,2-13.2c0.9-0.6,2-0.4,2.7,0.4
	c0.6,0.9,0.4,2-0.4,2.7c-2.5,1.9-3,5.4-1.1,7.9c2.5,3.3,7.1,4,10.4,1.6c4.4-3.2,5.3-9.4,2.1-13.8c0,0,0,0,0,0
	c-4.2-5.7-12.2-6.9-17.9-2.8c-0.1,0.1-6.4,4.5-6.4,11.9v46.4C86.2,107.1,85.3,108,84.3,108z M100.1,43.1c-3.2,0-6.3,1-8.9,2.9
	c-0.3,0.2-7.3,5.1-7.3,13.8v46.4c0,0.2,0.2,0.4,0.4,0.4c0.2,0,0.4-0.2,0.4-0.4c0,0,0,0,0,0V59.7c0-8.2,6.7-12.9,7-13.1
	c6.3-4.7,15.3-3.3,20,3c0,0,0,0,0,0.1c3.7,5.1,2.6,12.2-2.4,15.9c-4,3-9.6,2.1-12.6-1.9c0,0,0,0,0-0.1c-2.3-3.2-1.6-7.6,1.5-9.9
	c0.2-0.1,0.3-0.4,0.1-0.6c-0.1-0.2-0.4-0.3-0.6-0.1c0,0,0,0-0.1,0c-3.5,2.6-4.3,7.6-1.7,11.1c3.2,4.4,9.3,5.3,13.7,2.1
	c5.4-4,6.6-11.6,2.6-17c-2.4-3.2-5.9-5.4-9.9-6C101.6,43.1,100.9,43.1,100.1,43.1z"/>
<path d="M49.3,58.5c-7.1-5.2-17-3.6-22.2,3.4c-4.2,5.7-3,13.8,2.7,18c0,0,0,0,0,0c4.7,3.5,11.3,2.4,14.8-2.3c0,0,0,0,0,0
	c2.8-3.9,2-9.3-1.9-12.1c-0.5-0.4-1.2-0.3-1.6,0.2c-0.4,0.5-0.3,1.2,0.2,1.6c0,0,0,0,0.1,0.1c2.8,2.1,3.5,6,1.4,8.9c0,0,0,0,0,0
	c-2.7,3.7-7.9,4.5-11.5,1.8C26.6,74.6,25.6,68,29,63.3c4.4-6,12.9-7.4,19-2.9c0,0,0,0,0,0c0.1,0,6.7,4.6,6.7,12.4v40
	c-0.1,0.6,0.4,1.2,1,1.3c0.6,0.1,1.2-0.4,1.3-1c0-0.1,0-0.1,0-0.2v-40C56.9,63.8,49.6,58.7,49.3,58.5z"/>
<path d="M55.7,114.8c-1,0-1.9-0.9-1.9-1.9v-40c0-7.4-6.3-11.8-6.3-11.8c-5.7-4.2-13.7-3-17.9,2.7c0,0,0,0,0,0
	c-3.2,4.4-2.3,10.6,2.1,13.8c0,0,0,0,0,0c3.3,2.4,8,1.7,10.5-1.6c0,0,0,0,0,0c1.8-2.5,1.3-6-1.2-7.8c0,0,0,0,0,0
	c-0.4-0.3-0.7-0.7-0.8-1.2c-0.2-1,0.6-2,1.6-2.2c0.5-0.1,1,0,1.4,0.3c4.2,3.1,5.1,9,2,13.2c0,0,0,0,0,0c-3.7,5-10.7,6.1-15.8,2.4
	c-6.1-4.5-7.4-13-3-19.1c0,0,0,0,0,0c5.4-7.4,15.8-9,23.2-3.6c0.5,0.3,8,5.6,8,15v40C57.7,113.9,56.8,114.8,55.7,114.8
	C55.8,114.8,55.8,114.8,55.7,114.8z M39.9,57c3,0,6,1,8.5,2.8c0,0,7,4.8,7,13v40c0,0.2,0.1,0.4,0.3,0.5c0.2,0,0.4-0.1,0.5-0.3
	c0,0,0-0.1,0-0.1v-40c0-8.7-7-13.5-7.3-13.7l0,0c-6.7-4.9-16.2-3.5-21.1,3.2c0,0,0,0,0,0c-4,5.4-2.8,13,2.6,17c0,0,0,0,0,0
	c4.4,3.2,10.5,2.3,13.7-2.1c2.6-3.5,1.8-8.5-1.7-11.1c-0.1-0.1-0.2-0.1-0.3-0.1c-0.1,0-0.2,0.1-0.3,0.2c-0.1,0.1-0.1,0.2-0.1,0.3
	c0,0.1,0.1,0.2,0.2,0.3c3.2,2.3,3.9,6.8,1.6,9.9c0,0,0,0-0.1,0.1c-2.9,4-8.5,4.8-12.5,1.9c-5.1-3.7-6.2-10.8-2.5-15.9
	c2.2-3.1,5.6-5.1,9.4-5.7C38.5,57.1,39.2,57,39.9,57z"/>
<path d="M63.5,20.2c-7.1-5.2-17-3.6-22.2,3.4c-4.2,5.8-3,13.8,2.8,18.1c4.7,3.4,11.3,2.4,14.8-2.3c2.8-3.9,2-9.3-1.9-12.1
	c0,0,0,0,0,0c-0.5-0.3-1.3-0.2-1.6,0.4c-0.3,0.5-0.2,1.1,0.2,1.5c2.8,2.1,3.4,6.1,1.4,8.9c-2.7,3.7-7.9,4.5-11.5,1.8
	c-4.7-3.5-5.7-10.1-2.3-14.8c4.4-6,12.9-7.4,18.9-2.9c0,0,0.1,0,0.1,0.1c0.1,0,6.7,4.6,6.7,12.4v87.3c0,0.6,0.5,1.2,1.2,1.2
	s1.2-0.5,1.2-1.2c0,0,0,0,0,0V34.5C71.2,25.4,63.9,20.3,63.5,20.2z"/>
<path d="M70,123.7c-1.1,0-1.9-0.9-1.9-1.9V34.5c0-7.4-6.3-11.8-6.3-11.8c-5.7-4.2-13.7-3-17.9,2.7c0,0,0,0,0,0
	c-3.2,4.4-2.3,10.5,2.1,13.8c0,0,0,0,0,0c3.3,2.4,8,1.7,10.5-1.6c1.8-2.5,1.3-6-1.2-7.9c-0.9-0.6-1-1.8-0.4-2.7
	c0.6-0.9,1.8-1,2.7-0.4l0,0c4.2,3.1,5.1,9,2,13.2c-3.7,5-10.8,6.1-15.8,2.5c0,0,0,0,0,0c-6.1-4.5-7.4-13-3-19.1
	c5.4-7.4,15.8-9,23.2-3.6c0,0,0,0,0.1,0.1c0.5,0.3,8,5.6,8,14.9v87.3C71.9,122.8,71.1,123.7,70,123.7z M54.2,18.7c3,0,6,1,8.5,2.8
	c0,0,6.9,4.8,6.9,13v87.3c0,0.2,0.2,0.4,0.4,0.4c0.2,0,0.4-0.2,0.4-0.4l0,0V34.5c0-8.7-7-13.5-7.3-13.7l0,0
	C56.4,15.8,46.9,17.3,42,24c0,0,0,0,0,0c-4,5.4-2.8,13,2.6,17c4.4,3.2,10.5,2.3,13.7-2.1c2.6-3.5,1.8-8.5-1.7-11.1
	c-0.2-0.1-0.4,0-0.6,0.1c-0.1,0.2-0.1,0.4,0.1,0.5c3.2,2.3,3.9,6.8,1.5,9.9c0,0,0,0,0,0c-2.9,4-8.6,4.9-12.6,1.9
	c-5-3.7-6.1-10.8-2.5-15.8c2.2-3.1,5.6-5.1,9.4-5.7C52.7,18.7,53.4,18.7,54.2,18.7z"/>
</svg>
