<?xml version="1.0" encoding="utf-8"?>
<!-- Generator: Adobe Illustrator 24.1.0, SVG Export Plug-In . SVG Version: 6.00 Build 0)  -->
<svg version="1.1" id="Layer_1" xmlns="http://www.w3.org/2000/svg" xmlns:xlink="http://www.w3.org/1999/xlink" x="0px" y="0px"
	 viewBox="0 0 140 140" style="enable-background:new 0 0 140 140;" xml:space="preserve">
<path d="M71.2,36.8c3.3-4.9,6.6-9.6,9.7-13.9l-1.7-1.2c-2.9,4.1-6.1,8.6-9.2,13.3c-3.2-4.6-6.4-9.1-9.3-13.3l-1.6,1.2
	c3.1,4.3,6.4,9.1,9.7,13.9c-8.9,13.1-17.6,26.7-21,34.1c-5.4,11.9-8.9,22-1.1,34.2c2.3,3.7,7.6,10.2,16.5,12.6
	c2.2,0.6,4.4,0.9,6.7,0.9c2.3,0,4.5-0.3,6.7-0.9c8.9-2.4,14.2-9,16.5-12.6c7.8-12.2,4.3-22.3-1.2-34.2
	C88.8,63.5,80.1,49.9,71.2,36.8z M91.6,104c-2.2,3.4-7.1,9.5-15.4,11.8c-2,0.6-4.1,0.8-6.2,0.8s-4.2-0.3-6.2-0.8
	c-8.2-2.3-13.2-8.3-15.3-11.8c-4.8-7.6-5-14.1-3.1-21.1c0.7-0.4,1.4-0.6,2.2-0.5H48c3.4,0,4.4,1.9,5.6,4.1c1,1.9,2.2,4.1,5.2,4.1
	c3.5,0,5-2.2,6.3-4.2c1.3-2,2.6-3.9,5.9-3.9c2.8,0,3.9,1.8,5.2,3.9c1.2,2,2.6,4.2,5.5,4.2c2.9,0,4.2-2.2,5.5-4.2c1.3-2,2.5-4,5.2-4
	c0.8,0,1.6,0.2,2.3,0.6C96.6,89.8,96.4,96.5,91.6,104z M92.4,80.2c-3.8,0-5.5,2.8-6.9,5c-1.3,2-2.2,3.3-3.8,3.3s-2.5-1.2-3.8-3.2
	c-1.4-2.2-3.1-4.9-6.9-4.9c-4.3,0-6.1,2.7-7.6,4.8c-1.3,1.9-2.3,3.4-4.7,3.4c-1.7,0-2.4-1.1-3.4-3c-1.2-2.3-2.7-5.2-7.4-5.2l0,0
	h-0.4c-0.5,0-0.9,0.1-1.3,0.1c0.9-2.9,2.1-5.8,3.5-8.9c3.2-7.1,11.6-20.3,20.3-33.1c8.7,12.8,17,26,20.3,33.1c1.4,3.1,2.7,6,3.6,8.8
	C93.4,80.4,92.9,80.2,92.4,80.2z"/>
<path d="M69.9,119.3c-2.3,0-4.7-0.3-6.9-0.9c-9.2-2.5-14.6-9.2-17-13c-8-12.5-4.4-22.8,1.1-34.9c3.9-8.5,14.5-24.6,20.7-33.8
	c-3-4.5-6.3-9.1-9.4-13.5l-0.4-0.6l2.9-2l0.4,0.6c2.8,4,5.8,8.2,8.6,12.4c2.8-4.1,5.8-8.4,8.6-12.4l0.5-0.6l2.8,2l-0.4,0.6
	c-3.1,4.3-6.3,9-9.4,13.5c6.2,9.1,16.8,25.2,20.7,33.8c5.5,12.1,9.1,22.4,1.1,34.9c-2.4,3.8-7.8,10.4-17,13
	C74.7,119.1,72.2,119.3,69.9,119.3z M60.2,23.1c3.1,4.3,6.3,8.9,9.3,13.3l0.3,0.4l-0.3,0.4c-6.1,9-16.9,25.4-20.8,34
	c-5.4,11.7-8.9,21.6-1.3,33.5c2.3,3.6,7.4,9.9,16.1,12.3c2.1,0.6,4.3,0.9,6.5,0.9c2.2,0,4.4-0.3,6.5-0.9c8.7-2.4,13.8-8.7,16.1-12.3
	c7.6-11.9,4.1-21.8-1.2-33.5c-3.9-8.6-14.7-25-20.8-34l-0.3-0.4l0.3-0.4c3-4.4,6.2-9,9.2-13.3l-0.3-0.3c-2.9,4.1-5.9,8.5-8.8,12.7
	l-0.6,0.9l-0.6-0.9c-2.9-4.2-5.9-8.6-8.8-12.7L60.2,23.1z M69.9,117.3c-2.2,0-4.3-0.3-6.4-0.9c-8.5-2.3-13.6-8.6-15.8-12.1
	c-4.4-7-5.4-13.7-3.1-21.7l0.1-0.3l0.2-0.2c0.8-0.4,1.7-0.7,2.6-0.7h0.3H48c3.9,0,5.1,2.3,6.2,4.5c1,1.9,2,3.7,4.5,3.7
	c3,0,4.4-2,5.7-3.9c1.5-2.2,2.9-4.3,6.6-4.3c3.2,0,4.6,2.2,5.9,4.3c1.2,1.9,2.4,3.8,4.9,3.8s3.6-2,4.8-3.9c1.4-2.2,2.8-4.4,5.8-4.4
	c0.9,0,1.8,0.2,2.6,0.7l0.3,0.2l0.1,0.3c2.3,8.1,1.3,14.8-3.2,21.7l0,0c-2.2,3.5-7.3,9.8-15.8,12.1
	C74.2,117.1,72.2,117.3,69.9,117.3z M46,83.4c-2.1,7.6-1.1,13.7,3.1,20.2c2.1,3.3,6.9,9.2,14.9,11.4c2,0.5,4,0.8,6,0.8s4-0.3,6-0.8
	c8-2.2,12.8-8.1,14.9-11.4l0,0c4.2-6.6,5.1-12.6,3.1-20.2c-0.5-0.2-1.1-0.3-1.6-0.3c-2.2,0-3.3,1.7-4.6,3.7c-1.3,2-2.9,4.6-6.1,4.6
	s-4.9-2.5-6.1-4.5s-2.3-3.6-4.6-3.6c-2.9,0-3.9,1.5-5.3,3.6c-1.4,2.1-3.1,4.6-6.9,4.6c-3.4,0-4.8-2.5-5.8-4.5s-1.9-3.7-4.9-3.7h-0.4
	C47,83.1,46.5,83.2,46,83.4L46,83.4z M81.7,89.2c-2.2,0-3.3-1.7-4.5-3.6c-1.3-2.1-2.8-4.5-6.3-4.5c-3.9,0-5.5,2.4-7,4.4
	c-1.3,1.9-2.5,3.7-5.3,3.7c-2.2,0-3.1-1.6-4.1-3.5c-1.1-2.2-2.5-4.8-6.7-4.8h-0.2c-0.4,0-0.9,0.1-1.3,0.1L45,81.2l0.4-1.2
	c1-3,2.4-6.2,3.6-8.9c3.8-8.4,14.4-24.4,20.4-33.2l0.6-0.9l0.6,0.9c6,8.8,16.5,24.8,20.4,33.2c1.2,2.7,2.6,5.8,3.6,8.8l0.4,1.2
	l-1.3-0.3c-0.4-0.1-0.9-0.2-1.4-0.2c-3.3,0-4.9,2.5-6.3,4.6C84.9,87.7,83.8,89.2,81.7,89.2L81.7,89.2z M70.9,79.7
	c4.3,0,6.2,3,7.6,5.2c1.3,2,1.9,2.9,3.2,2.9s1.8-0.9,3.1-2.9c1.4-2.2,3.4-5.3,7.5-5.3h0.4c-1-2.6-2.1-5.3-3.2-7.6
	c-2.8-6-9.7-17.4-19.6-32.1c-9.9,14.7-16.8,26.1-19.6,32.1c-1,2.3-2.2,5-3.2,7.6h0.3h0.4l0,0c5.2,0,6.9,3.2,8.2,5.6
	c1,2,1.5,2.7,2.7,2.7c2,0,2.8-1.2,4.1-3C64.2,82.7,66.2,79.7,70.9,79.7z"/>
</svg>
